<?xml version="1.0" encoding="UTF-8" standalone="no"?>
<!DOCTYPE svg PUBLIC "-//W3C//DTD SVG 1.1//EN" "http://www.w3.org/Graphics/SVG/1.1/DTD/svg11.dtd">
<svg width="100%" height="100%" viewBox="0 0 512 512" version="1.1" xmlns="http://www.w3.org/2000/svg" xmlns:xlink="http://www.w3.org/1999/xlink" xml:space="preserve" xmlns:serif="http://www.serif.com/" style="fill-rule:evenodd;clip-rule:evenodd;stroke-linejoin:round;stroke-miterlimit:2;">
    <rect x="0" y="0" width="512" height="512" style="fill:rgb(45,6,99);"/>
    <g transform="matrix(6.20767,0,0,6.20767,90.1159,75.9775)">
        <path d="M46.324,52.5L1.565,52.5C0.535,52.5 -0.214,51.522 0.055,50.527L10.221,22.656C10.405,21.974 11.024,21.5 11.731,21.5L56.49,21.5C57.52,21.5 58,22.484 58,23.473L47.834,51.344C47.65,52.026 47.031,52.5 46.324,52.5Z" style="fill:rgb(255,0,237);fill-rule:nonzero;"/>
        <path d="M50.268,12.5L25,12.5L20,5.5L1.732,5.5C0.776,5.5 -0,6.275 -0,7.232L-0,49.96C0.069,49.962 0.138,49.966 0.205,49.97L10.22,22.656C10.404,21.973 11.023,21.5 11.73,21.5L52,21.5L52,14.232C52,13.275 51.224,12.5 50.268,12.5Z" style="fill:rgb(173,0,255);fill-rule:nonzero;"/>
    </g>
</svg>
